<?xml version="1.0" encoding="UTF-8"?>
<svg width="300px" height="300px" viewBox="0 0 300 300" version="1.1" xmlns="http://www.w3.org/2000/svg" xmlns:xlink="http://www.w3.org/1999/xlink">
    <title>Group 2</title>
    <g id="Page-1" stroke="none" stroke-width="1" fill="none" fill-rule="evenodd">
        <g id="Group-2" fill-rule="nonzero">
            <g id="restaurant" transform="translate(56.000000, 59.000000)">
                <rect id="Rectangle" fill="#BEC6CB" x="6.6122449" y="40.7755102" width="94.7755102" height="54"></rect>
                <rect id="Rectangle" fill="#D3D8DB" x="54" y="40.7755102" width="47.3877551" height="54"></rect>
                <path d="M88.1632653,34.1632653 L88.1632653,78.1661049 C88.1632653,80.0614366 86.6702012,81.5510204 84.7694732,81.5510204 L57.3937921,81.5510204 C55.4930641,81.5510204 54,80.0614366 54,78.1661049 L54,34.1632653 L88.1632653,34.1632653 Z" id="Path" fill="#C5CBCF"></path>
                <path d="M88.1632653,34.1632653 L88.1632653,78.1661049 C88.1632653,80.0614366 86.66065,81.5510204 84.7477627,81.5510204 L60.6122449,81.5510204 L60.6122449,34.1632653 L88.1632653,34.1632653 Z" id="Path" fill="#BAC2C7"></path>
                <path d="M98.9622652,6.74436634 L98.0863234,6.48001971 C82.6570193,2.11601796 69.9007861,0 54,0 C38.0992139,0 25.3429807,2.11601796 9.91367662,6.47981222 L9.03773479,6.74415884 C7.62307711,7.14109377 6.6122449,8.46365687 6.6122449,9.91839328 L6.6122449,23.1427793 C6.6122449,24.9940357 8.09434777,26.4489796 9.98112181,26.4489796 L98.0188782,26.4489796 C99.9056522,26.4489796 101.387755,24.9940357 101.387755,23.1427793 L101.387755,9.91839328 C101.387755,8.46344938 100.376923,7.14109377 98.9622652,6.74436634 Z" id="Path" fill="#A8AFB3"></path>
                <path d="M98.0188782,26.4489796 L54,26.4489796 L54,0 C69.9007861,0 82.6570193,2.11601796 98.0863234,6.47981222 L98.9622652,6.74415884 C100.376923,7.14088628 101.387755,8.46324188 101.387755,9.91818579 L101.387755,23.1425718 C101.387755,24.9942432 99.9056522,26.4489796 98.0188782,26.4489796 Z" id="Path" fill="#919A9F"></path>
                <polygon id="Path" fill="#BEC6CB" points="108 34.1633345 101.278055 40.7755102 6.72194531 40.7755102 2.50575071e-13 34.1633345 6.72194531 20.9387755 101.278055 20.9387755"></polygon>
                <polygon id="Path" fill="#D3D8DB" points="108 34.1633345 101.278055 40.7755102 54 40.7755102 54 20.9387755 101.278055 20.9387755"></polygon>
                <g id="Group" transform="translate(0.000000, 40.775510)">
                    <rect id="Rectangle" fill="#E9ECEE" x="20.1660469" y="0.0280546875" width="27.1120078" height="53.7759844"></rect>
                    <path d="M108,50.7488332 C108,52.6308176 106.521328,54.1099114 104.638922,54.1099114 L3.36107812,54.1099114 C1.47867187,54.1099114 0,52.6308176 0,50.7488332 C0,48.866427 1.47867187,47.3877551 3.36107812,47.3877551 L104.639133,47.3877551 C106.521328,47.3877551 108,48.866427 108,50.7488332 Z" id="Path" fill="#8F9192"></path>
                </g>
                <rect id="Rectangle" fill="#DADEE0" x="60.6122449" y="40.7755102" width="20.9387755" height="34.1632653"></rect>
                <path d="M108,91.469284 C108,93.3205549 106.521328,94.7755102 104.638922,94.7755102 L54,94.7755102 L54,88.1632653 L104.638922,88.1632653 C106.521328,88.1630578 108,89.6175981 108,91.469284 Z" id="Path" fill="#8F9192"></path>
                <path d="M6.6122449,54 L6.6122449,54 C2.96033194,54 2.50575071e-13,51.0396681 2.50575071e-13,47.3877551 L2.50575071e-13,34.1632653 L13.2244898,34.1632653 L13.2244898,47.3877551 C13.2244898,51.0396681 10.2641579,54 6.6122449,54 Z" id="Path" fill="#CDD3D6"></path>
                <path d="M19.8367347,54 L19.8367347,54 C16.1848217,54 13.2244898,51.0396681 13.2244898,47.3877551 L13.2244898,34.1632653 L26.4489796,34.1632653 L26.4489796,47.3877551 C26.4489796,51.0396681 23.4886477,54 19.8367347,54 Z" id="Path" fill="#DCE0E3"></path>
                <path d="M33.7295377,54 L33.7295377,54 C29.8382011,54 26.4489796,51.0396681 26.4489796,47.3877551 L26.4489796,34.1632653 L40.7755102,34.1632653 L40.7755102,47.3877551 C40.7755102,51.0396681 37.6210955,54 33.7295377,54 Z" id="Path" fill="#CDD3D6"></path>
                <path d="M73.7282603,54 L73.7282603,54 C70.1362573,54 67.2244898,51.0396681 67.2244898,47.3877551 L67.2244898,34.1632653 L80.4489796,34.1632653 L80.4489796,47.3877551 C80.4487755,51.0396681 77.3202633,54 73.7282603,54 Z" id="Path" fill="#C7D1D6"></path>
                <path d="M88.1632653,54 L88.1632653,54 C84.5113523,54 81.5510204,51.0396681 81.5510204,47.3877551 L81.5510204,34.1632653 L94.7755102,34.1632653 L94.7755102,47.3877551 C94.7757177,51.0396681 91.8153858,54 88.1632653,54 Z" id="Path" fill="#A2ABAF"></path>
                <path d="M101.387755,54 L101.387755,54 C97.7358421,54 94.7755102,51.0396681 94.7755102,47.3877551 L94.7755102,34.1632653 L108,34.1632653 L108,47.3877551 C108,51.0396681 105.039668,54 101.387755,54 Z" id="Path" fill="#C7D1D6"></path>
                <path d="M47.3877551,54 L47.3877551,54 C43.7358421,54 40.7755102,51.0396681 40.7755102,47.3877551 L40.7755102,34.1632653 L54,34.1632653 L54,47.3877551 C54,51.0396681 51.0396681,54 47.3877551,54 Z" id="Path" fill="#DCE0E3"></path>
                <path d="M60.6122449,54 L60.6122449,54 C56.9603319,54 54,51.0396681 54,47.3877551 L54,34.1632653 L67.2244898,34.1632653 L67.2244898,47.3877551 C67.2244898,51.0396681 64.2641579,54 60.6122449,54 Z" id="Path" fill="#A2ABAF"></path>
                <g id="Group" transform="translate(13.224490, 20.938776)" fill="#DFE4E8">
                    <polygon id="Path" points="13.6204993 13.0751548 0.155073702 13.0751548 5.20468753 0.108033909 16.9866973 0.108033909"></polygon>
                    <polygon id="Path" points="40.7755102 13.0751548 27.3102959 13.0751548 30.6764938 0.108033909 40.7755102 0.108033909"></polygon>
                </g>
                <g id="Group" transform="translate(54.000000, 20.938776)" fill="#B1B6B8">
                    <polygon id="Path" points="27.1550109 13.0751548 40.6204365 13.0751548 35.5708227 0.108033909 23.7888129 0.108033909"></polygon>
                    <polygon id="Path" points="0 13.0751548 13.4652143 13.0751548 10.0990164 0.108033909 0 0.108033909"></polygon>
                </g>
            </g>
            <g id="evaluation" transform="translate(150.000000, 150.000000) scale(-1, 1) translate(-150.000000, -150.000000) ">
                <polygon id="Path" fill="#BAC2C7" transform="translate(100.668164, 212.091178) rotate(-45.000000) translate(-100.668164, -212.091178) " points="83.9950279 193.985261 117.341299 193.985261 117.341299 230.197095 83.9950279 230.197095"></polygon>
                <polygon id="Path" fill="#C5CBCF" transform="translate(87.866444, 199.286550) rotate(-45.000000) translate(-87.866444, -199.286550) " points="71.1933084 181.180633 104.53958 181.180633 104.53958 217.392468 71.1933084 217.392468"></polygon>
                <path d="M82.5078471,217.492153 L7.95573441,292.044266 C18.5637827,302.652314 35.762173,302.652314 46.3702213,292.044266 L101.715091,236.699396 L82.5078471,217.492153 Z" id="Path" fill="#8F9192"></path>
                <path d="M33.5655936,279.239638 L88.9104628,223.894769 L63.3012072,198.285513 L7.95573441,253.629779 C-2.65231388,264.237827 -2.65231388,281.436217 7.95573441,292.043662 C11.4917505,295.580282 22.9575453,289.847082 33.5655936,279.239638 L33.5655936,279.239638 Z" id="Path" fill="#AEB5BA"></path>
                <path d="M112.49336,161.897384 L114.519718,211.090141 L124.12334,220.693763 C125.891348,222.461771 128.757948,222.461771 130.525956,220.693763 L150.907847,200.311871 L112.49336,161.897384 Z" id="Path" fill="#BEC6CB"></path>
                <path d="M99.6887324,149.092153 L79.306841,169.474044 C77.538833,171.242052 77.538833,174.108652 79.306841,175.87666 L114.519718,211.089537 L138.102616,187.50664 L99.6887324,149.092153 Z" id="Path" fill="#DADEE0"></path>
                <path d="M191.348089,6.09656515e-14 C251.354882,6.09656515e-14 300,48.6451177 300,108.651911 C300,168.658705 251.354882,217.303823 191.348089,217.303823 C131.341295,217.303823 82.6961771,168.658705 82.6961771,108.651911 C82.6961771,48.6451177 131.341295,6.09656515e-14 191.348089,6.09656515e-14 Z M191.348089,18.1086519 L189.850785,18.1207821 C140.535559,18.9203472 100.804829,59.1461348 100.804829,108.651911 C100.804829,158.157688 140.535559,198.383476 189.850785,199.183041 L189.850785,199.183041 L191.348089,199.195171 L192.845392,199.183041 C242.160618,198.383476 281.891348,158.157688 281.891348,108.651911 C281.891348,59.1461348 242.160618,18.9203472 192.845392,18.1207821 L192.845392,18.1207821 L191.348089,18.1086519 Z" id="Combined-Shape" fill="#B1BABF"></path>
                <path d="M108.117103,230.296781 L95.3124748,217.492153 L82.5078471,230.296781 L95.3124748,243.101408 C98.8484909,246.637425 104.581087,246.637425 108.117103,243.101408 C111.653119,239.565996 111.653119,233.832797 108.117103,230.296781 Z" id="Path" fill="#BEC6CB"></path>
                <path d="M95.3124748,230.296781 C98.8484909,226.760765 98.8484909,221.028169 95.3124748,217.492153 L69.7032193,191.882897 C66.1672032,188.346881 60.4346076,188.346881 56.8985915,191.882897 C53.3625755,195.418913 53.3625755,201.151509 56.8985915,204.687525 L82.5078471,230.296781 C86.0438632,233.832797 91.7764588,233.832797 95.3124748,230.296781 L95.3124748,230.296781 Z" id="Path" fill="#DADEE0"></path>
            </g>
        </g>
    </g>
</svg>